
<svg xmlns="http://www.w3.org/2000/svg" style="display:none">
  <defs>
    
  </defs>

  <symbol id="arrow-right" viewBox="0 0 24 24" fill="none" stroke="currentColor" stroke-width="2" stroke-linecap="square" stroke-linejoin="miter">
    <path d="M5 12h14M13 5l7 7-7 7"></path>
  </symbol>
  <symbol id="arrow-down" viewBox="0 0 24 24" fill="none" stroke="currentColor" stroke-width="2" stroke-linecap="square" stroke-linejoin="miter">
    <path d="M12 5v14M5 13l7 7 7-7"></path>
  </symbol>
  <symbol id="menu" viewBox="0 0 24 24" fill="none" stroke="currentColor" stroke-width="2" stroke-linecap="square">
    <path d="M3 6h18M3 12h18M3 18h18"></path>
  </symbol>
  <symbol id="close" viewBox="0 0 24 24" fill="none" stroke="currentColor" stroke-width="2" stroke-linecap="square">
    <path d="M4 4l16 16M20 4L4 20"></path>
  </symbol>
  <symbol id="search" viewBox="0 0 24 24" fill="none" stroke="currentColor" stroke-width="2" stroke-linecap="square">
    <circle cx="11" cy="11" r="7"></circle><path d="M20 20l-4-4"></path>
  </symbol>
  <symbol id="check" viewBox="0 0 24 24" fill="none" stroke="currentColor" stroke-width="2" stroke-linecap="square">
    <path d="M4 12l5 5 11-11"></path>
  </symbol>
  <symbol id="external" viewBox="0 0 24 24" fill="none" stroke="currentColor" stroke-width="2" stroke-linecap="square">
    <path d="M14 4h6v6M20 4L10 14M18 14v6H4V6h6"></path>
  </symbol>
  <symbol id="share" viewBox="0 0 24 24" fill="none" stroke="currentColor" stroke-width="2" stroke-linecap="square">
    <path d="M4 12v8h16v-8M12 15V3M7 8l5-5 5 5"></path>
  </symbol>
  <symbol id="document" viewBox="0 0 24 24" fill="none" stroke="currentColor" stroke-width="2" stroke-linecap="square">
    <path d="M6 3h9l5 5v13H6zM15 3v5h5M8 13h9M8 17h9M8 9h4"></path>
  </symbol>
  <symbol id="download" viewBox="0 0 24 24" fill="none" stroke="currentColor" stroke-width="2" stroke-linecap="square">
    <path d="M12 4v12M6 10l6 6 6-6M4 20h16"></path>
  </symbol>
  <symbol id="user" viewBox="0 0 24 24" fill="none" stroke="currentColor" stroke-width="2" stroke-linecap="square">
    <circle cx="12" cy="8" r="4"></circle><path d="M4 20c0-4 4-6 8-6s8 2 8 6"></path>
  </symbol>
  <symbol id="chart" viewBox="0 0 24 24" fill="none" stroke="currentColor" stroke-width="2" stroke-linecap="square">
    <path d="M4 20V4M4 20h16M8 16V10M12 16V6M16 16v-8M20 16v-4"></path>
  </symbol>
  <symbol id="globe" viewBox="0 0 24 24" fill="none" stroke="currentColor" stroke-width="2" stroke-linecap="square">
    <circle cx="12" cy="12" r="9"></circle><path d="M3 12h18M12 3c3 3 4.5 6 4.5 9s-1.5 6-4.5 9c-3-3-4.5-6-4.5-9S9 6 12 3z"></path>
  </symbol>
  <symbol id="plus" viewBox="0 0 24 24" fill="none" stroke="currentColor" stroke-width="2" stroke-linecap="square">
    <path d="M12 5v14M5 12h14"></path>
  </symbol>
  <symbol id="minus" viewBox="0 0 24 24" fill="none" stroke="currentColor" stroke-width="2" stroke-linecap="square">
    <path d="M5 12h14"></path>
  </symbol>
  <symbol id="filter" viewBox="0 0 24 24" fill="none" stroke="currentColor" stroke-width="2" stroke-linecap="square">
    <path d="M3 5h18l-7 9v5l-4 2v-7z"></path>
  </symbol>
  <symbol id="bell" viewBox="0 0 24 24" fill="none" stroke="currentColor" stroke-width="2" stroke-linecap="square">
    <path d="M6 17V10a6 6 0 0112 0v7M4 17h16M10 20c0 1 1 2 2 2s2-1 2-2"></path>
  </symbol>
  <symbol id="calendar" viewBox="0 0 24 24" fill="none" stroke="currentColor" stroke-width="2" stroke-linecap="square">
    <rect x="3" y="5" width="18" height="16"></rect><path d="M3 10h18M8 3v4M16 3v4"></path>
  </symbol>
</svg>